<?xml version="1.0" standalone="no"?><!DOCTYPE svg PUBLIC "-//W3C//DTD SVG 1.1//EN" "http://www.w3.org/Graphics/SVG/1.1/DTD/svg11.dtd"><svg t="1651030794435" class="icon" viewBox="0 0 1025 1024" version="1.1" xmlns="http://www.w3.org/2000/svg" p-id="7669" xmlns:xlink="http://www.w3.org/1999/xlink" width="200.1953125" height="200"><defs><style type="text/css">@font-face { font-family: feedback-iconfont; src: url("//at.alicdn.com/t/font_1031158_u69w8yhxdu.woff2?t=1630033759944") format("woff2"), url("//at.alicdn.com/t/font_1031158_u69w8yhxdu.woff?t=1630033759944") format("woff"), url("//at.alicdn.com/t/font_1031158_u69w8yhxdu.ttf?t=1630033759944") format("truetype"); }
</style></defs><path d="M695.808 658.944c-30.72 0-59.392 11.264-83.968 25.6 0-3.584 0.512-6.144 0.512-9.216 0-129.536-102.912-239.104-233.984-239.104-108.544 0-202.752 76.288-230.4 176.128-84.992 20.48-147.968 96.768-147.968 187.904 0 97.28 67.072 179.712 161.28 193.024h550.912c83.968-8.192 150.528-79.872 150.528-165.888 0-91.648-74.752-168.448-166.912-168.448z" p-id="7670" fill="#0077fa"></path><path d="M1022.464 659.968c0-84.48-68.608-155.136-153.6-155.136-28.16 0-54.784 10.24-77.312 23.552 0-3.072 0.512-5.632 0.512-8.704 0-119.296-94.72-219.648-215.04-219.648-65.536 0-125.44 30.208-165.888 76.8 122.368 13.824 222.72 104.448 252.928 223.232 10.752-1.536 20.992-2.56 31.232-2.56 117.76 0 215.04 90.112 226.816 205.824 58.88-22.016 100.352-78.336 100.352-143.36z" p-id="7671" fill="#0077fa"></path></svg>